<svg width="120" height="120" viewBox="0 0 120 120" xmlns="http://www.w3.org/2000/svg">
  <path fill="#181717" d="M60 0C26.88 0 0 26.88 0 60c0 26.52 17.16 48.96 40.92 56.88 2.88.6 3.96-1.2 3.96-2.76 0-1.32-.06-5.64-.06-11.16-16.68 3.6-20.16-7.08-20.16-7.08-2.76-6.96-6.6-8.76-6.6-8.76-5.4-3.72.42-3.6.42-3.6 5.94.42 9.06 6.12 9.06 6.12 5.28 9.06 13.86 6.42 17.22 4.92.54-3.84 2.04-6.42 3.72-7.92-13.32-1.5-27.36-6.6-27.36-29.52 0-6.54 2.34-11.88 6.12-16.08-.6-1.5-2.64-7.56.6-15.72 0 0 5.04-1.62 16.44 6.12 4.8-1.32 9.9-2.04 15-2.04 5.1 0 10.2.72 15 2.04 11.4-7.74 16.44-6.12 16.44-6.12 3.24 8.16 1.2 14.22.6 15.72 3.84 4.2 6.12 9.54 6.12 16.08 0 22.98-14.04 27.96-27.42 29.46 2.16 1.86 4.02 5.46 4.02 11.04 0 7.92-.06 14.34-.06 16.32 0 1.56 1.02 3.42 3.96 2.76C102.84 108.96 120 86.52 120 60 120 26.88 93.12 0 60 0z"/>
</svg>
